<svg xmlns="http://www.w3.org/2000/svg" viewBox="0 0 192 192">
  <defs>
    <path id="qr-shape" d="M0 0 H192 V192 H0 Z"/>
    <mask id="maskable-mask">
      <circle cx="96" cy="96" r="76" fill="white"/>
    </mask>
  </defs>
  <g mask="url(#maskable-mask)">
    <defs>
      <linearGradient id="grad2" x1="0%" y1="0%" x2="100%" y2="100%">
        <stop offset="0%" style="stop-color:#2563eb;stop-opacity:1" />
        <stop offset="100%" style="stop-color:#1e40af;stop-opacity:1" />
      </linearGradient>
    </defs>
    <rect width="192" height="192" fill="url(#grad2)"/>
    <g transform="translate(30, 30)">
      <rect x="0" y="0" width="132" height="132" fill="#ffffff" rx="10"/>
      <rect x="10" y="10" width="30" height="30" fill="none" stroke="#2563eb" stroke-width="3"/>
      <rect x="14" y="14" width="22" height="22" fill="#2563eb"/>
      <rect x="92" y="10" width="30" height="30" fill="none" stroke="#2563eb" stroke-width="3"/>
      <rect x="96" y="14" width="22" height="22" fill="#2563eb"/>
      <rect x="10" y="92" width="30" height="30" fill="none" stroke="#2563eb" stroke-width="3"/>
      <rect x="14" y="96" width="22" height="22" fill="#2563eb"/>
      <rect x="52" y="52" width="28" height="28" fill="#2563eb"/>
      <rect x="60" y="60" width="12" height="12" fill="#ffffff"/>
    </g>
    <g transform="translate(128, 128)">
      <circle cx="0" cy="0" r="18" fill="#4ade80"/>
      <path d="M-8 0 L-2 6 L8 -4" fill="none" stroke="#ffffff" stroke-width="3" stroke-linecap="round" stroke-linejoin="round"/>
    </g>
  </g>
</svg>
