<svg xmlns="http://www.w3.org/2000/svg" viewBox="0 0 1280 720">
  <defs>
    <linearGradient id="ss2-grad" x1="0%" y1="0%" x2="100%" y2="100%">
      <stop offset="0%" style="stop-color:#667eea;stop-opacity:1" />
      <stop offset="100%" style="stop-color:#764ba2;stop-opacity:1" />
    </linearGradient>
  </defs>
  
  <!-- Desktop background -->
  <rect width="1280" height="720" fill="url(#ss2-grad)"/>
  
  <!-- Header bar -->
  <rect width="1280" height="60" fill="#ffffff" opacity="0.95"/>
  <text x="40" y="40" font-family="Arial" font-size="24" font-weight="bold" fill="#2563eb">Dashboard Admin</text>
  
  <!-- Left sidebar -->
  <rect width="280" height="660" y="60" fill="#ffffff" opacity="0.1"/>
  
  <!-- Stats cards -->
  <rect x="300" y="80" width="220" height="120" fill="#ffffff" opacity="0.95" rx="8"/>
  <text x="320" y="110" font-family="Arial" font-size="14" fill="#6b7280">Total Siswa</text>
  <text x="320" y="150" font-family="Arial" font-size="36" font-weight="bold" fill="#2563eb">245</text>
  
  <rect x="540" y="80" width="220" height="120" fill="#ffffff" opacity="0.95" rx="8"/>
  <text x="560" y="110" font-family="Arial" font-size="14" fill="#6b7280">Hadir Hari Ini</text>
  <text x="560" y="150" font-family="Arial" font-size="36" font-weight="bold" fill="#10b981">198</text>
  
  <rect x="780" y="80" width="220" height="120" fill="#ffffff" opacity="0.95" rx="8"/>
  <text x="800" y="110" font-family="Arial" font-size="14" fill="#6b7280">Terlambat</text>
  <text x="800" y="150" font-family="Arial" font-size="36" font-weight="bold" fill="#f59e0b">32</text>
  
  <!-- Table section -->
  <rect x="300" y="230" width="700" height="380" fill="#ffffff" opacity="0.95" rx="8"/>
  <rect x="300" y="230" width="700" height="50" fill="#f3f4f6" rx="8" rx-top="8"/>
  
  <text x="320" y="265" font-family="Arial" font-size="14" font-weight="bold" fill="#1f2937">Nama Siswa</text>
  <text x="580" y="265" font-family="Arial" font-size="14" font-weight="bold" fill="#1f2937">Kelas</text>
  <text x="740" y="265" font-family="Arial" font-size="14" font-weight="bold" fill="#1f2937">Status</text>
  
  <!-- Sample rows -->
  <line x1="300" y1="290" x2="1000" y2="290" stroke="#e5e7eb" stroke-width="1"/>
  <text x="320" y="320" font-family="Arial" font-size="13" fill="#374151">Ahmad Rizki</text>
  <text x="580" y="320" font-family="Arial" font-size="13" fill="#374151">X-A</text>
  <circle cx="760" cy="310" r="8" fill="#10b981"/>
  
  <line x1="300" y1="345" x2="1000" y2="345" stroke="#e5e7eb" stroke-width="1"/>
  <text x="320" y="375" font-family="Arial" font-size="13" fill="#374151">Siti Nurhaliza</text>
  <text x="580" y="375" font-family="Arial" font-size="13" fill="#374151">X-B</text>
  <circle cx="760" cy="365" r="8" fill="#10b981"/>
  
  <line x1="300" y1="400" x2="1000" y2="400" stroke="#e5e7eb" stroke-width="1"/>
  <text x="320" y="430" font-family="Arial" font-size="13" fill="#374151">Budi Santoso</text>
  <text x="580" y="430" font-family="Arial" font-size="13" fill="#374151">XI-A</text>
  <circle cx="760" cy="420" r="8" fill="#f59e0b"/>
</svg>
